<svg width="560" height="315" viewBox="0 0 560 315" fill="none" xmlns="http://www.w3.org/2000/svg">
<g clip-path="url(#clip0_37_20)">
<rect width="560" height="315" fill="white"/>
<path d="M87.8906 86.9023L80.4141 90.3594V90.5938L87.8906 94.0508V97.6953L76.9688 91.8945V89.0586L87.8906 83.2461V86.9023ZM90.9492 93.2656H94.0898C94.2422 94.7305 95.4375 95.5742 97.3594 95.5742C99.1875 95.5742 100.348 94.6953 100.348 93.3242C100.348 92.1758 99.5977 91.5664 97.6406 91.1328L95.8828 90.7227C92.8242 90.0312 91.3242 88.4141 91.3242 85.9062C91.3242 82.7539 93.6562 80.75 97.3125 80.75C100.852 80.75 103.23 82.7305 103.336 85.7539H100.195C100.066 84.3594 99 83.5039 97.3477 83.5039C95.6719 83.5039 94.6289 84.2891 94.6289 85.5547C94.6289 86.75 95.3789 87.4062 97.207 87.8047L98.9414 88.2031C102.211 88.9297 103.641 90.3945 103.641 92.9844C103.641 96.3242 101.25 98.3398 97.3008 98.3398C93.4688 98.3398 91.0664 96.4297 90.9492 93.2656ZM109.418 81.3828H112.559V85.2031H117.375V87.7695H112.617V93.9453C112.617 94.918 113.309 95.4688 114.539 95.4688C114.844 95.4688 117.082 95.457 117.223 95.4453V97.9766C117.094 98 114.539 98.0234 114.281 98.0234C110.766 98.0234 109.418 96.9102 109.418 93.9102V87.7695H106.055V85.2031H109.418V81.3828ZM125.18 98.2109C122.742 98.2109 121.102 96.6406 121.102 94.3086C121.102 91.9766 122.801 90.6055 125.988 90.3828L129.012 90.1953V89.1641C129.012 88.0391 128.238 87.3828 126.914 87.3828C125.801 87.3828 124.969 87.875 124.699 88.6836H121.582C121.816 86.3398 123.938 84.8281 127.008 84.8281C130.324 84.8281 132.188 86.4102 132.188 89.2344V98H129.141V96.2773H128.859C128.227 97.4961 126.867 98.2109 125.18 98.2109ZM126.281 95.6445C127.875 95.6445 129.012 94.6367 129.012 93.1953V92.2578L126.527 92.4102C125.027 92.5039 124.266 93.0781 124.266 94.0742C124.266 95.0352 125.039 95.6445 126.281 95.6445ZM147.609 89.5859H144.469C144.258 88.1328 143.391 87.4297 141.996 87.4297C140.273 87.4297 139.324 88.7188 139.324 91.0859V91.9531C139.324 94.3203 140.273 95.6094 141.996 95.6094C143.402 95.6094 144.246 94.9414 144.469 93.5586H147.609C147.328 96.6406 145.359 98.2812 142.02 98.2812C138.211 98.2812 136.102 96.125 136.102 92.1992V90.8398C136.102 86.9141 138.211 84.7578 142.02 84.7578C145.359 84.7578 147.305 86.4219 147.609 89.5859ZM154.934 90.2656L159.434 85.0742H163.102L158.32 90.4531L163.43 98H159.715L155.965 92.4805L154.734 93.7109V98H151.535V80.1523H154.734V90.2656H154.934ZM181.043 88.8477C181.043 86.3398 183.059 84.7695 186.258 84.7695C189.387 84.7695 191.297 86.1758 191.449 88.6016H188.426C188.273 87.7461 187.43 87.2188 186.234 87.2188C185.016 87.2188 184.207 87.7695 184.207 88.5898C184.207 89.293 184.746 89.7148 186 89.9727L188.004 90.3828C190.617 90.9219 191.777 92.0352 191.777 94.0039C191.777 96.6172 189.645 98.2695 186.281 98.2695C182.977 98.2695 180.938 96.8516 180.762 94.4258H183.926C184.125 95.3164 184.992 95.8086 186.328 95.8086C187.641 95.8086 188.484 95.2578 188.484 94.4141C188.484 93.6875 187.992 93.3359 186.633 93.043L184.699 92.6328C182.273 92.1055 181.043 90.8398 181.043 88.8477ZM202.547 84.875C205.512 84.875 207.258 86.9141 207.258 90.4297V92.6562C207.258 96.1836 205.512 98.2227 202.547 98.2227C200.684 98.2227 199.395 97.3555 198.961 95.8086H198.727V102.301H195.387V85.0742H198.68V87.3008H198.926C199.383 85.7422 200.66 84.875 202.547 84.875ZM201.316 87.6641C199.652 87.6641 198.645 88.7422 198.645 90.5234V92.668C198.645 94.4492 199.652 95.5273 201.316 95.5273C202.969 95.5273 203.988 94.4375 203.988 92.668V90.5234C203.988 88.7539 202.969 87.6641 201.316 87.6641ZM214.195 98.2109C211.758 98.2109 210.117 96.6406 210.117 94.3086C210.117 91.9766 211.816 90.6055 215.004 90.3828L218.027 90.1953V89.1641C218.027 88.0391 217.254 87.3828 215.93 87.3828C214.816 87.3828 213.984 87.875 213.715 88.6836H210.598C210.832 86.3398 212.953 84.8281 216.023 84.8281C219.34 84.8281 221.203 86.4102 221.203 89.2344V98H218.156V96.2773H217.875C217.242 97.4961 215.883 98.2109 214.195 98.2109ZM215.297 95.6445C216.891 95.6445 218.027 94.6367 218.027 93.1953V92.2578L215.543 92.4102C214.043 92.5039 213.281 93.0781 213.281 94.0742C213.281 95.0352 214.055 95.6445 215.297 95.6445ZM236.625 89.5859H233.484C233.273 88.1328 232.406 87.4297 231.012 87.4297C229.289 87.4297 228.34 88.7188 228.34 91.0859V91.9531C228.34 94.3203 229.289 95.6094 231.012 95.6094C232.418 95.6094 233.262 94.9414 233.484 93.5586H236.625C236.344 96.6406 234.375 98.2812 231.035 98.2812C227.227 98.2812 225.117 96.125 225.117 92.1992V90.8398C225.117 86.9141 227.227 84.7578 231.035 84.7578C234.375 84.7578 236.32 86.4219 236.625 89.5859ZM245.801 82.4375C244.488 82.4375 243.609 81.6289 243.609 80.4102C243.609 79.1914 244.488 78.3828 245.801 78.3828C247.113 78.3828 248.004 79.1914 248.004 80.4102C248.004 81.6289 247.113 82.4375 245.801 82.4375ZM251.32 98H240.152V95.4453H244.301V87.6406H240.363V85.0742H247.418V95.4453H251.32V98ZM254.695 98V85.0742H257.801V87.2422H258C258.633 85.6836 260.027 84.8047 261.891 84.8047C264.703 84.8047 266.203 86.4922 266.203 89.6445V98H262.992V90.4062C262.992 88.5078 262.23 87.6055 260.602 87.6055C258.961 87.6055 257.895 88.7422 257.895 90.5352V98H254.695ZM274.922 102.863C271.57 102.863 269.379 101.445 269.168 99.1484H272.297C272.52 99.9805 273.551 100.508 274.969 100.508C276.832 100.508 277.816 99.6641 277.816 98.0469V95.5039H277.57C277.172 96.957 275.672 97.9297 273.75 97.9297C270.773 97.9297 268.992 95.8672 268.992 92.375V90.418C268.992 86.8906 270.809 84.8633 273.902 84.8633C275.777 84.8633 277.219 85.8125 277.641 87.2773H277.875V85.0742H281.027V97.9883C281.027 101 278.695 102.863 274.922 102.863ZM272.273 92.2812C272.273 94.0391 273.34 95.1406 275.016 95.1406C276.703 95.1406 277.77 94.0391 277.77 92.2812V90.418C277.77 88.6602 276.703 87.5586 275.016 87.5586C273.34 87.5586 272.273 88.6719 272.273 90.418V92.2812ZM296.332 89.1055H283.91V85.8945H296.332V89.1055ZM296.332 95.082H283.91V91.8711H296.332V95.082ZM303.762 89.1641H300.598V81.0898H303.762V89.1641ZM309.316 89.1641H306.152V81.0898H309.316V89.1641ZM319.816 93.6641H319.629L317.051 98H313.652L317.754 91.6016L313.617 85.0742H317.32L319.77 89.4336H319.969L322.43 85.0742H325.945L321.82 91.4609L325.969 98H322.395L319.816 93.6641ZM340.336 98H329.168V95.4453H333.27V82.707H329.379V80.1523H336.48V95.4453H340.336V98ZM348.27 89.1641H345.105V81.0898H348.27V89.1641ZM353.824 89.1641H350.66V81.0898H353.824V89.1641ZM380.578 84.875C383.543 84.875 385.289 86.9141 385.289 90.4297V92.6562C385.289 96.1836 383.543 98.2227 380.578 98.2227C378.715 98.2227 377.426 97.3555 376.992 95.8086H376.758V102.301H373.418V85.0742H376.711V87.3008H376.957C377.414 85.7422 378.691 84.875 380.578 84.875ZM379.348 87.6641C377.684 87.6641 376.676 88.7422 376.676 90.5234V92.668C376.676 94.4492 377.684 95.5273 379.348 95.5273C381 95.5273 382.02 94.4375 382.02 92.668V90.5234C382.02 88.7539 381 87.6641 379.348 87.6641ZM393.996 93.6641H393.809L391.23 98H387.832L391.934 91.6016L387.797 85.0742H391.5L393.949 89.4336H394.148L396.609 85.0742H400.125L396 91.4609L400.148 98H396.574L393.996 93.6641ZM415.02 89.1055H402.598V85.8945H415.02V89.1055ZM415.02 95.082H402.598V91.8711H415.02V95.082ZM422.449 89.1641H419.285V81.0898H422.449V89.1641ZM428.004 89.1641H424.84V81.0898H428.004V89.1641ZM444.188 98H433.02V95.4453H437.121V82.707H433.23V80.1523H440.332V95.4453H444.188V98ZM452.953 102.863C449.602 102.863 447.41 101.445 447.199 99.1484H450.328C450.551 99.9805 451.582 100.508 453 100.508C454.863 100.508 455.848 99.6641 455.848 98.0469V95.5039H455.602C455.203 96.957 453.703 97.9297 451.781 97.9297C448.805 97.9297 447.023 95.8672 447.023 92.375V90.418C447.023 86.8906 448.84 84.8633 451.934 84.8633C453.809 84.8633 455.25 85.8125 455.672 87.2773H455.906V85.0742H459.059V97.9883C459.059 101 456.727 102.863 452.953 102.863ZM450.305 92.2812C450.305 94.0391 451.371 95.1406 453.047 95.1406C454.734 95.1406 455.801 94.0391 455.801 92.2812V90.418C455.801 88.6602 454.734 87.5586 453.047 87.5586C451.371 87.5586 450.305 88.6719 450.305 90.418V92.2812ZM466.957 89.1641H463.793V81.0898H466.957V89.1641ZM472.512 89.1641H469.348V81.0898H472.512V89.1641ZM499.266 84.875C502.23 84.875 503.977 86.9141 503.977 90.4297V92.6562C503.977 96.1836 502.23 98.2227 499.266 98.2227C497.402 98.2227 496.113 97.3555 495.68 95.8086H495.445V102.301H492.105V85.0742H495.398V87.3008H495.645C496.102 85.7422 497.379 84.875 499.266 84.875ZM498.035 87.6641C496.371 87.6641 495.363 88.7422 495.363 90.5234V92.668C495.363 94.4492 496.371 95.5273 498.035 95.5273C499.688 95.5273 500.707 94.4375 500.707 92.668V90.5234C500.707 88.7539 499.688 87.6641 498.035 87.6641ZM509.988 81.3828H513.129V85.2031H517.945V87.7695H513.188V93.9453C513.188 94.918 513.879 95.4688 515.109 95.4688C515.414 95.4688 517.652 95.457 517.793 95.4453V97.9766C517.664 98 515.109 98.0234 514.852 98.0234C511.336 98.0234 509.988 96.9102 509.988 93.9102V87.7695H506.625V85.2031H509.988V81.3828ZM533.707 89.1055H521.285V85.8945H533.707V89.1055ZM533.707 95.082H521.285V91.8711H533.707V95.082ZM541.137 89.1641H537.973V81.0898H541.137V89.1641ZM546.691 89.1641H543.527V81.0898H546.691V89.1641ZM563.695 87.9688V98H560.977V89.0469C560.977 88.1211 560.52 87.5703 559.781 87.5703C559.02 87.5703 558.516 88.1797 558.516 89.1289V98H555.832V89.0469C555.832 88.1211 555.398 87.5703 554.637 87.5703C553.863 87.5703 553.359 88.1797 553.359 89.1289V98H550.641V85.0742H553.441V87.1016H553.781C554.074 85.6133 554.953 84.8047 556.23 84.8047C557.402 84.8047 558.223 85.6016 558.492 86.9961H558.832C559.102 85.6133 560.004 84.8047 561.234 84.8047C562.828 84.8047 563.695 85.918 563.695 87.9688ZM570.574 98.1992C567.621 98.1992 565.863 96.1602 565.863 92.6445V90.418C565.863 86.9023 567.621 84.8633 570.574 84.8633C572.438 84.8633 573.727 85.7305 574.16 87.2773H574.395V80.1523H577.746V98H574.441V95.7734H574.195C573.75 97.3438 572.473 98.1992 570.574 98.1992ZM571.816 95.4219C573.469 95.4219 574.477 94.332 574.477 92.5508V90.418C574.477 88.6367 573.469 87.5586 571.816 87.5586C570.152 87.5586 569.133 88.6367 569.133 90.418V92.5508C569.133 94.332 570.152 95.4219 571.816 95.4219ZM585.645 89.1641H582.48V81.0898H585.645V89.1641ZM591.199 89.1641H588.035V81.0898H591.199V89.1641ZM596.227 86.9023V83.2461L607.148 89.0586V91.8945L596.227 97.6953V94.0508L603.691 90.5938V90.3594L596.227 86.9023ZM117.562 115.902L110.086 119.359V119.594L117.562 123.051V126.695L106.641 120.895V118.059L117.562 112.246V115.902ZM120.621 122.266H123.762C123.914 123.73 125.109 124.574 127.031 124.574C128.859 124.574 130.02 123.695 130.02 122.324C130.02 121.176 129.27 120.566 127.312 120.133L125.555 119.723C122.496 119.031 120.996 117.414 120.996 114.906C120.996 111.754 123.328 109.75 126.984 109.75C130.523 109.75 132.902 111.73 133.008 114.754H129.867C129.738 113.359 128.672 112.504 127.02 112.504C125.344 112.504 124.301 113.289 124.301 114.555C124.301 115.75 125.051 116.406 126.879 116.805L128.613 117.203C131.883 117.93 133.312 119.395 133.312 121.984C133.312 125.324 130.922 127.34 126.973 127.34C123.141 127.34 120.738 125.43 120.621 122.266ZM139.09 110.383H142.23V114.203H147.047V116.77H142.289V122.945C142.289 123.918 142.98 124.469 144.211 124.469C144.516 124.469 146.754 124.457 146.895 124.445V126.977C146.766 127 144.211 127.023 143.953 127.023C140.438 127.023 139.09 125.91 139.09 122.91V116.77H135.727V114.203H139.09V110.383ZM154.852 127.211C152.414 127.211 150.773 125.641 150.773 123.309C150.773 120.977 152.473 119.605 155.66 119.383L158.684 119.195V118.164C158.684 117.039 157.91 116.383 156.586 116.383C155.473 116.383 154.641 116.875 154.371 117.684H151.254C151.488 115.34 153.609 113.828 156.68 113.828C159.996 113.828 161.859 115.41 161.859 118.234V127H158.812V125.277H158.531C157.898 126.496 156.539 127.211 154.852 127.211ZM155.953 124.645C157.547 124.645 158.684 123.637 158.684 122.195V121.258L156.199 121.41C154.699 121.504 153.938 122.078 153.938 123.074C153.938 124.035 154.711 124.645 155.953 124.645ZM177.281 118.586H174.141C173.93 117.133 173.062 116.43 171.668 116.43C169.945 116.43 168.996 117.719 168.996 120.086V120.953C168.996 123.32 169.945 124.609 171.668 124.609C173.074 124.609 173.918 123.941 174.141 122.559H177.281C177 125.641 175.031 127.281 171.691 127.281C167.883 127.281 165.773 125.125 165.773 121.199V119.84C165.773 115.914 167.883 113.758 171.691 113.758C175.031 113.758 176.977 115.422 177.281 118.586ZM184.605 119.266L189.105 114.074H192.773L187.992 119.453L193.102 127H189.387L185.637 121.48L184.406 122.711V127H181.207V109.152H184.406V119.266H184.605ZM210.715 117.848C210.715 115.34 212.73 113.77 215.93 113.77C219.059 113.77 220.969 115.176 221.121 117.602H218.098C217.945 116.746 217.102 116.219 215.906 116.219C214.688 116.219 213.879 116.77 213.879 117.59C213.879 118.293 214.418 118.715 215.672 118.973L217.676 119.383C220.289 119.922 221.449 121.035 221.449 123.004C221.449 125.617 219.316 127.27 215.953 127.27C212.648 127.27 210.609 125.852 210.434 123.426H213.598C213.797 124.316 214.664 124.809 216 124.809C217.312 124.809 218.156 124.258 218.156 123.414C218.156 122.688 217.664 122.336 216.305 122.043L214.371 121.633C211.945 121.105 210.715 119.84 210.715 117.848ZM232.219 113.875C235.184 113.875 236.93 115.914 236.93 119.43V121.656C236.93 125.184 235.184 127.223 232.219 127.223C230.355 127.223 229.066 126.355 228.633 124.809H228.398V131.301H225.059V114.074H228.352V116.301H228.598C229.055 114.742 230.332 113.875 232.219 113.875ZM230.988 116.664C229.324 116.664 228.316 117.742 228.316 119.523V121.668C228.316 123.449 229.324 124.527 230.988 124.527C232.641 124.527 233.66 123.438 233.66 121.668V119.523C233.66 117.754 232.641 116.664 230.988 116.664ZM243.867 127.211C241.43 127.211 239.789 125.641 239.789 123.309C239.789 120.977 241.488 119.605 244.676 119.383L247.699 119.195V118.164C247.699 117.039 246.926 116.383 245.602 116.383C244.488 116.383 243.656 116.875 243.387 117.684H240.27C240.504 115.34 242.625 113.828 245.695 113.828C249.012 113.828 250.875 115.41 250.875 118.234V127H247.828V125.277H247.547C246.914 126.496 245.555 127.211 243.867 127.211ZM244.969 124.645C246.562 124.645 247.699 123.637 247.699 122.195V121.258L245.215 121.41C243.715 121.504 242.953 122.078 242.953 123.074C242.953 124.035 243.727 124.645 244.969 124.645ZM266.297 118.586H263.156C262.945 117.133 262.078 116.43 260.684 116.43C258.961 116.43 258.012 117.719 258.012 120.086V120.953C258.012 123.32 258.961 124.609 260.684 124.609C262.09 124.609 262.934 123.941 263.156 122.559H266.297C266.016 125.641 264.047 127.281 260.707 127.281C256.898 127.281 254.789 125.125 254.789 121.199V119.84C254.789 115.914 256.898 113.758 260.707 113.758C264.047 113.758 265.992 115.422 266.297 118.586ZM275.473 111.438C274.16 111.438 273.281 110.629 273.281 109.41C273.281 108.191 274.16 107.383 275.473 107.383C276.785 107.383 277.676 108.191 277.676 109.41C277.676 110.629 276.785 111.438 275.473 111.438ZM280.992 127H269.824V124.445H273.973V116.641H270.035V114.074H277.09V124.445H280.992V127ZM284.367 127V114.074H287.473V116.242H287.672C288.305 114.684 289.699 113.805 291.562 113.805C294.375 113.805 295.875 115.492 295.875 118.645V127H292.664V119.406C292.664 117.508 291.902 116.605 290.273 116.605C288.633 116.605 287.566 117.742 287.566 119.535V127H284.367ZM304.594 131.863C301.242 131.863 299.051 130.445 298.84 128.148H301.969C302.191 128.98 303.223 129.508 304.641 129.508C306.504 129.508 307.488 128.664 307.488 127.047V124.504H307.242C306.844 125.957 305.344 126.93 303.422 126.93C300.445 126.93 298.664 124.867 298.664 121.375V119.418C298.664 115.891 300.48 113.863 303.574 113.863C305.449 113.863 306.891 114.812 307.312 116.277H307.547V114.074H310.699V126.988C310.699 130 308.367 131.863 304.594 131.863ZM301.945 121.281C301.945 123.039 303.012 124.141 304.688 124.141C306.375 124.141 307.441 123.039 307.441 121.281V119.418C307.441 117.66 306.375 116.559 304.688 116.559C303.012 116.559 301.945 117.672 301.945 119.418V121.281ZM326.004 118.105H313.582V114.895H326.004V118.105ZM326.004 124.082H313.582V120.871H326.004V124.082ZM333.434 118.164H330.27V110.09H333.434V118.164ZM338.988 118.164H335.824V110.09H338.988V118.164ZM344.238 117.848C344.238 115.34 346.254 113.77 349.453 113.77C352.582 113.77 354.492 115.176 354.645 117.602H351.621C351.469 116.746 350.625 116.219 349.43 116.219C348.211 116.219 347.402 116.77 347.402 117.59C347.402 118.293 347.941 118.715 349.195 118.973L351.199 119.383C353.812 119.922 354.973 121.035 354.973 123.004C354.973 125.617 352.84 127.27 349.477 127.27C346.172 127.27 344.133 125.852 343.957 123.426H347.121C347.32 124.316 348.188 124.809 349.523 124.809C350.836 124.809 351.68 124.258 351.68 123.414C351.68 122.688 351.188 122.336 349.828 122.043L347.895 121.633C345.469 121.105 344.238 119.84 344.238 117.848ZM370.828 116.969V127H368.109V118.047C368.109 117.121 367.652 116.57 366.914 116.57C366.152 116.57 365.648 117.18 365.648 118.129V127H362.965V118.047C362.965 117.121 362.531 116.57 361.77 116.57C360.996 116.57 360.492 117.18 360.492 118.129V127H357.773V114.074H360.574V116.102H360.914C361.207 114.613 362.086 113.805 363.363 113.805C364.535 113.805 365.355 114.602 365.625 115.996H365.965C366.234 114.613 367.137 113.805 368.367 113.805C369.961 113.805 370.828 114.918 370.828 116.969ZM377.941 118.164H374.777V110.09H377.941V118.164ZM383.496 118.164H380.332V110.09H383.496V118.164ZM388.523 115.902V112.246L399.445 118.059V120.895L388.523 126.695V123.051L395.988 119.594V119.359L388.523 115.902ZM147.234 144.902L139.758 148.359V148.594L147.234 152.051V155.695L136.312 149.895V147.059L147.234 141.246V144.902ZM158.262 156H154.934V141.961H150.094V139.09H163.102V141.961H158.262V156ZM174.234 152.367H177.258C176.988 154.652 174.703 156.281 171.703 156.281C167.941 156.281 165.785 154.172 165.785 150.504V148.43C165.785 145.043 168.129 142.805 171.645 142.805C175.066 142.805 177.258 145.055 177.258 148.523V150.305H168.926V151.008C168.926 152.695 170.016 153.797 171.691 153.797C172.98 153.797 174 153.211 174.234 152.367ZM171.586 145.289C169.922 145.289 168.926 146.402 168.926 148.254H174.164C174.164 146.402 173.203 145.289 171.586 145.289ZM186.293 151.664H186.105L183.527 156H180.129L184.23 149.602L180.094 143.074H183.797L186.246 147.434H186.445L188.906 143.074H192.422L188.297 149.461L192.445 156H188.871L186.293 151.664ZM198.434 139.383H201.574V143.203H206.391V145.77H201.633V151.945C201.633 152.918 202.324 153.469 203.555 153.469C203.859 153.469 206.098 153.457 206.238 153.445V155.977C206.109 156 203.555 156.023 203.297 156.023C199.781 156.023 198.434 154.91 198.434 151.91V145.77H195.07V143.203H198.434V139.383ZM225.551 146.848C225.551 144.34 227.566 142.77 230.766 142.77C233.895 142.77 235.805 144.176 235.957 146.602H232.934C232.781 145.746 231.938 145.219 230.742 145.219C229.523 145.219 228.715 145.77 228.715 146.59C228.715 147.293 229.254 147.715 230.508 147.973L232.512 148.383C235.125 148.922 236.285 150.035 236.285 152.004C236.285 154.617 234.152 156.27 230.789 156.27C227.484 156.27 225.445 154.852 225.27 152.426H228.434C228.633 153.316 229.5 153.809 230.836 153.809C232.148 153.809 232.992 153.258 232.992 152.414C232.992 151.688 232.5 151.336 231.141 151.043L229.207 150.633C226.781 150.105 225.551 148.84 225.551 146.848ZM245.801 140.438C244.488 140.438 243.609 139.629 243.609 138.41C243.609 137.191 244.488 136.383 245.801 136.383C247.113 136.383 248.004 137.191 248.004 138.41C248.004 139.629 247.113 140.438 245.801 140.438ZM251.32 156H240.152V153.445H244.301V145.641H240.363V143.074H247.418V153.445H251.32V156ZM255.094 156V154.09L261.82 145.863V145.664H255.199V143.074H265.664V145.23L259.312 153.211V153.41H265.805V156H255.094ZM278.086 152.367H281.109C280.84 154.652 278.555 156.281 275.555 156.281C271.793 156.281 269.637 154.172 269.637 150.504V148.43C269.637 145.043 271.98 142.805 275.496 142.805C278.918 142.805 281.109 145.055 281.109 148.523V150.305H272.777V151.008C272.777 152.695 273.867 153.797 275.543 153.797C276.832 153.797 277.852 153.211 278.086 152.367ZM275.438 145.289C273.773 145.289 272.777 146.402 272.777 148.254H278.016C278.016 146.402 277.055 145.289 275.438 145.289ZM296.332 147.105H283.91V143.895H296.332V147.105ZM296.332 153.082H283.91V149.871H296.332V153.082ZM303.762 147.164H300.598V139.09H303.762V147.164ZM309.316 147.164H306.152V139.09H309.316V147.164ZM314.566 146.848C314.566 144.34 316.582 142.77 319.781 142.77C322.91 142.77 324.82 144.176 324.973 146.602H321.949C321.797 145.746 320.953 145.219 319.758 145.219C318.539 145.219 317.73 145.77 317.73 146.59C317.73 147.293 318.27 147.715 319.523 147.973L321.527 148.383C324.141 148.922 325.301 150.035 325.301 152.004C325.301 154.617 323.168 156.27 319.805 156.27C316.5 156.27 314.461 154.852 314.285 152.426H317.449C317.648 153.316 318.516 153.809 319.852 153.809C321.164 153.809 322.008 153.258 322.008 152.414C322.008 151.688 321.516 151.336 320.156 151.043L318.223 150.633C315.797 150.105 314.566 148.84 314.566 146.848ZM341.156 145.969V156H338.438V147.047C338.438 146.121 337.98 145.57 337.242 145.57C336.48 145.57 335.977 146.18 335.977 147.129V156H333.293V147.047C333.293 146.121 332.859 145.57 332.098 145.57C331.324 145.57 330.82 146.18 330.82 147.129V156H328.102V143.074H330.902V145.102H331.242C331.535 143.613 332.414 142.805 333.691 142.805C334.863 142.805 335.684 143.602 335.953 144.996H336.293C336.562 143.613 337.465 142.805 338.695 142.805C340.289 142.805 341.156 143.918 341.156 145.969ZM348.27 147.164H345.105V139.09H348.27V147.164ZM353.824 147.164H350.66V139.09H353.824V147.164ZM380.566 156.199C378.68 156.199 377.402 155.344 376.945 153.773H376.711V156H373.406V138.152H376.746V145.277H376.992C377.426 143.73 378.715 142.863 380.566 142.863C383.531 142.863 385.277 144.902 385.277 148.418V150.645C385.277 154.16 383.531 156.199 380.566 156.199ZM379.336 153.422C381 153.422 382.008 152.332 382.008 150.551V148.418C382.008 146.637 381 145.559 379.336 145.559C377.684 145.559 376.664 146.637 376.664 148.418V150.551C376.664 152.332 377.684 153.422 379.336 153.422ZM393.973 156.281C390.328 156.281 388.031 154.066 388.031 150.539V148.547C388.031 145.02 390.328 142.805 393.973 142.805C397.617 142.805 399.914 145.02 399.914 148.547V150.539C399.914 154.066 397.617 156.281 393.973 156.281ZM393.973 145.43C392.25 145.43 391.184 146.672 391.184 148.676V150.41C391.184 152.402 392.25 153.656 393.973 153.656C395.695 153.656 396.762 152.402 396.762 150.41V148.676C396.762 146.672 395.695 145.43 393.973 145.43ZM414.516 156H403.348V153.445H407.449V140.707H403.559V138.152H410.66V153.445H414.516V156ZM422.215 156.199C419.262 156.199 417.504 154.16 417.504 150.645V148.418C417.504 144.902 419.262 142.863 422.215 142.863C424.078 142.863 425.367 143.73 425.801 145.277H426.035V138.152H429.387V156H426.082V153.773H425.836C425.391 155.344 424.113 156.199 422.215 156.199ZM423.457 153.422C425.109 153.422 426.117 152.332 426.117 150.551V148.418C426.117 146.637 425.109 145.559 423.457 145.559C421.793 145.559 420.773 146.637 420.773 148.418V150.551C420.773 152.332 421.793 153.422 423.457 153.422ZM433.031 144.902V141.246L443.953 147.059V149.895L433.031 155.695V152.051L440.496 148.594V148.359L433.031 144.902ZM165.434 168.09H170.859C175.594 168.09 178.066 170.949 178.066 176.422C178.066 182.094 175.629 185 170.859 185H165.434V168.09ZM168.762 170.961V182.129H170.402C173.332 182.129 174.668 180.371 174.668 176.48C174.668 172.754 173.285 170.961 170.402 170.961H168.762ZM189.07 181.367H192.094C191.824 183.652 189.539 185.281 186.539 185.281C182.777 185.281 180.621 183.172 180.621 179.504V177.43C180.621 174.043 182.965 171.805 186.48 171.805C189.902 171.805 192.094 174.055 192.094 177.523V179.305H183.762V180.008C183.762 181.695 184.852 182.797 186.527 182.797C187.816 182.797 188.836 182.211 189.07 181.367ZM186.422 174.289C184.758 174.289 183.762 175.402 183.762 177.254H189C189 175.402 188.039 174.289 186.422 174.289ZM198.891 185V174.77H195.445V172.203H198.891V171.289C198.891 168.359 200.273 167.258 203.766 167.258C204.082 167.258 207.059 167.281 207.246 167.305V169.66C207 169.637 204.164 169.625 203.859 169.625C202.652 169.625 202.031 170.117 202.031 171.078V172.203H207.246V174.77H202.102V185H198.891ZM214.195 185.211C211.758 185.211 210.117 183.641 210.117 181.309C210.117 178.977 211.816 177.605 215.004 177.383L218.027 177.195V176.164C218.027 175.039 217.254 174.383 215.93 174.383C214.816 174.383 213.984 174.875 213.715 175.684H210.598C210.832 173.34 212.953 171.828 216.023 171.828C219.34 171.828 221.203 173.41 221.203 176.234V185H218.156V183.277H217.875C217.242 184.496 215.883 185.211 214.195 185.211ZM215.297 182.645C216.891 182.645 218.027 181.637 218.027 180.195V179.258L215.543 179.41C214.043 179.504 213.281 180.078 213.281 181.074C213.281 182.035 214.055 182.645 215.297 182.645ZM236.531 172.074V185H233.426V182.832H233.227C232.594 184.391 231.199 185.281 229.336 185.281C226.523 185.281 225.023 183.594 225.023 180.441V172.074H228.234V179.668C228.234 181.566 228.996 182.469 230.625 182.469C232.266 182.469 233.332 181.332 233.332 179.551V172.074H236.531ZM251.32 185H240.152V182.445H244.254V169.707H240.363V167.152H247.465V182.445H251.32V185ZM257.777 168.383H260.918V172.203H265.734V174.77H260.977V180.945C260.977 181.918 261.668 182.469 262.898 182.469C263.203 182.469 265.441 182.457 265.582 182.445V184.977C265.453 185 262.898 185.023 262.641 185.023C259.125 185.023 257.777 183.91 257.777 180.91V174.77H254.414V172.203H257.777V168.383ZM147.234 202.902L139.758 206.359V206.594L147.234 210.051V213.695L136.312 207.895V205.059L147.234 199.246V202.902ZM154.184 216.578H150.973L158.93 194.512H162.223L154.184 216.578ZM173.098 214H169.77V199.961H164.93V197.09H177.938V199.961H173.098V214ZM189.07 210.367H192.094C191.824 212.652 189.539 214.281 186.539 214.281C182.777 214.281 180.621 212.172 180.621 208.504V206.43C180.621 203.043 182.965 200.805 186.48 200.805C189.902 200.805 192.094 203.055 192.094 206.523V208.305H183.762V209.008C183.762 210.695 184.852 211.797 186.527 211.797C187.816 211.797 188.836 211.211 189.07 210.367ZM186.422 203.289C184.758 203.289 183.762 204.402 183.762 206.254H189C189 204.402 188.039 203.289 186.422 203.289ZM201.129 209.664H200.941L198.363 214H194.965L199.066 207.602L194.93 201.074H198.633L201.082 205.434H201.281L203.742 201.074H207.258L203.133 207.461L207.281 214H203.707L201.129 209.664ZM213.27 197.383H216.41V201.203H221.227V203.77H216.469V209.945C216.469 210.918 217.16 211.469 218.391 211.469C218.695 211.469 220.934 211.457 221.074 211.445V213.977C220.945 214 218.391 214.023 218.133 214.023C214.617 214.023 213.27 212.91 213.27 209.91V203.77H209.906V201.203H213.27V197.383ZM225.328 202.902V199.246L236.25 205.059V207.895L225.328 213.695V210.051L232.793 206.594V206.359L225.328 202.902ZM147.234 231.902L139.758 235.359V235.594L147.234 239.051V242.695L136.312 236.895V234.059L147.234 228.246V231.902ZM155.168 243.199C152.215 243.199 150.457 241.16 150.457 237.645V235.418C150.457 231.902 152.215 229.863 155.168 229.863C157.031 229.863 158.32 230.73 158.754 232.277H158.988V225.152H162.34V243H159.035V240.773H158.789C158.344 242.344 157.066 243.199 155.168 243.199ZM156.41 240.422C158.062 240.422 159.07 239.332 159.07 237.551V235.418C159.07 233.637 158.062 232.559 156.41 232.559C154.746 232.559 153.727 233.637 153.727 235.418V237.551C153.727 239.332 154.746 240.422 156.41 240.422ZM171.621 227.438C170.309 227.438 169.43 226.629 169.43 225.41C169.43 224.191 170.309 223.383 171.621 223.383C172.934 223.383 173.824 224.191 173.824 225.41C173.824 226.629 172.934 227.438 171.621 227.438ZM177.141 243H165.973V240.445H170.121V232.641H166.184V230.074H173.238V240.445H177.141V243ZM179.953 230.074H183.398L186.223 239.871H186.41L189.199 230.074H192.586L188.109 243H184.453L179.953 230.074ZM210.715 233.848C210.715 231.34 212.73 229.77 215.93 229.77C219.059 229.77 220.969 231.176 221.121 233.602H218.098C217.945 232.746 217.102 232.219 215.906 232.219C214.688 232.219 213.879 232.77 213.879 233.59C213.879 234.293 214.418 234.715 215.672 234.973L217.676 235.383C220.289 235.922 221.449 237.035 221.449 239.004C221.449 241.617 219.316 243.27 215.953 243.27C212.648 243.27 210.609 241.852 210.434 239.426H213.598C213.797 240.316 214.664 240.809 216 240.809C217.312 240.809 218.156 240.258 218.156 239.414C218.156 238.688 217.664 238.336 216.305 238.043L214.371 237.633C211.945 237.105 210.715 235.84 210.715 233.848ZM228.105 226.383H231.246V230.203H236.062V232.77H231.305V238.945C231.305 239.918 231.996 240.469 233.227 240.469C233.531 240.469 235.77 240.457 235.91 240.445V242.977C235.781 243 233.227 243.023 232.969 243.023C229.453 243.023 228.105 241.91 228.105 238.91V232.77H224.742V230.203H228.105V226.383ZM241.793 247.664C241.242 247.664 240.656 247.652 240.562 247.641V245.016C240.645 245.039 241.102 245.051 241.277 245.051C242.578 245.051 243.293 244.605 243.598 243.586L243.727 243.094L239.18 230.074H242.719L245.578 240.047H245.777L248.637 230.074H252.035L247.582 243.164C246.469 246.492 244.957 247.664 241.793 247.664ZM266.156 243H254.988V240.445H259.09V227.707H255.199V225.152H262.301V240.445H266.156V243ZM278.086 239.367H281.109C280.84 241.652 278.555 243.281 275.555 243.281C271.793 243.281 269.637 241.172 269.637 237.504V235.43C269.637 232.043 271.98 229.805 275.496 229.805C278.918 229.805 281.109 232.055 281.109 235.523V237.305H272.777V238.008C272.777 239.695 273.867 240.797 275.543 240.797C276.832 240.797 277.852 240.211 278.086 239.367ZM275.438 232.289C273.773 232.289 272.777 233.402 272.777 235.254H278.016C278.016 233.402 277.055 232.289 275.438 232.289ZM296.332 234.105H283.91V230.895H296.332V234.105ZM296.332 240.082H283.91V236.871H296.332V240.082ZM309.855 245.578H307.969C304.582 245.578 303.48 244.512 303.48 241.23V238.652C303.48 236.801 302.637 236.086 300.059 236.18V232.91C302.637 233.016 303.48 232.301 303.48 230.449V227.859C303.48 224.578 304.582 223.512 307.969 223.512H309.855V226.09H308.73C307.066 226.09 306.738 226.477 306.738 228.41V231.68C306.738 233.273 305.59 234.316 303.469 234.445V234.656C305.59 234.785 306.738 235.816 306.738 237.422V240.68C306.738 242.613 307.066 243 308.73 243H309.855V245.578ZM324.691 245.578H322.805C319.418 245.578 318.316 244.512 318.316 241.23V238.652C318.316 236.801 317.473 236.086 314.895 236.18V232.91C317.473 233.016 318.316 232.301 318.316 230.449V227.859C318.316 224.578 319.418 223.512 322.805 223.512H324.691V226.09H323.566C321.902 226.09 321.574 226.477 321.574 228.41V231.68C321.574 233.273 320.426 234.316 318.305 234.445V234.656C320.426 234.785 321.574 235.816 321.574 237.422V240.68C321.574 242.613 321.902 243 323.566 243H324.691V245.578ZM356.648 230.074L354.059 243H351.27L349.523 234.328H349.406L347.66 243H344.871L342.281 230.074H345.34L346.336 239.168H346.746L348.141 230.121H350.789L352.184 239.168H352.594L353.578 230.074H356.648ZM364.488 227.438C363.176 227.438 362.297 226.629 362.297 225.41C362.297 224.191 363.176 223.383 364.488 223.383C365.801 223.383 366.691 224.191 366.691 225.41C366.691 226.629 365.801 227.438 364.488 227.438ZM370.008 243H358.84V240.445H362.988V232.641H359.051V230.074H366.105V240.445H370.008V243ZM377.707 243.199C374.754 243.199 372.996 241.16 372.996 237.645V235.418C372.996 231.902 374.754 229.863 377.707 229.863C379.57 229.863 380.859 230.73 381.293 232.277H381.527V225.152H384.879V243H381.574V240.773H381.328C380.883 242.344 379.605 243.199 377.707 243.199ZM378.949 240.422C380.602 240.422 381.609 239.332 381.609 237.551V235.418C381.609 233.637 380.602 232.559 378.949 232.559C377.285 232.559 376.266 233.637 376.266 235.418V237.551C376.266 239.332 377.285 240.422 378.949 240.422ZM391.301 226.383H394.441V230.203H399.258V232.77H394.5V238.945C394.5 239.918 395.191 240.469 396.422 240.469C396.727 240.469 398.965 240.457 399.105 240.445V242.977C398.977 243 396.422 243.023 396.164 243.023C392.648 243.023 391.301 241.91 391.301 238.91V232.77H387.938V230.203H391.301V226.383ZM403.008 243V225.152H406.137V232.277H406.324C406.945 230.73 408.387 229.84 410.273 229.84C413.074 229.84 414.621 231.551 414.621 234.668V243H411.41V235.453C411.41 233.566 410.613 232.641 408.984 232.641C407.297 232.641 406.207 233.789 406.207 235.57V243H403.008ZM423.645 234.352C422.227 234.352 421.066 233.156 421.066 231.703C421.066 230.25 422.227 229.066 423.645 229.066C425.062 229.066 426.223 230.25 426.223 231.703C426.223 233.156 425.062 234.352 423.645 234.352ZM423.645 243.223C422.227 243.223 421.066 242.027 421.066 240.586C421.066 239.121 422.227 237.938 423.645 237.938C425.062 237.938 426.223 239.121 426.223 240.586C426.223 242.027 425.062 243.223 423.645 243.223ZM453.223 243.34C449.684 243.34 447.223 241.254 447.129 238.195H450.34C450.539 239.555 451.723 240.469 453.293 240.469C455.109 240.469 456.328 239.238 456.328 237.41C456.328 235.57 455.098 234.328 453.293 234.328C452.074 234.328 451.148 234.844 450.539 235.863H447.328L448.125 226.09H458.461V228.891H450.762L450.398 233.402H450.609C451.336 232.336 452.613 231.75 454.195 231.75C457.312 231.75 459.492 234.035 459.492 237.328C459.492 240.938 456.973 243.34 453.223 243.34ZM468.152 243.352C464.098 243.352 461.801 240.176 461.801 234.539C461.801 228.902 464.098 225.727 468.152 225.727C472.219 225.727 474.516 228.902 474.516 234.539C474.516 240.176 472.219 243.352 468.152 243.352ZM465.059 234.539C465.059 234.691 465.059 234.832 465.059 234.973L470.871 231.129C470.391 229.395 469.477 228.48 468.152 228.48C466.148 228.48 465.059 230.613 465.059 234.539ZM468.152 240.598C470.168 240.598 471.258 238.477 471.258 234.539C471.258 234.398 471.258 234.27 471.258 234.129L465.445 237.973C465.926 239.695 466.84 240.598 468.152 240.598ZM482.988 243.352C478.934 243.352 476.637 240.176 476.637 234.539C476.637 228.902 478.934 225.727 482.988 225.727C487.055 225.727 489.352 228.902 489.352 234.539C489.352 240.176 487.055 243.352 482.988 243.352ZM479.895 234.539C479.895 234.691 479.895 234.832 479.895 234.973L485.707 231.129C485.227 229.395 484.312 228.48 482.988 228.48C480.984 228.48 479.895 230.613 479.895 234.539ZM482.988 240.598C485.004 240.598 486.094 238.477 486.094 234.539C486.094 234.398 486.094 234.27 486.094 234.129L480.281 237.973C480.762 239.695 481.676 240.598 482.988 240.598ZM507.762 245.578V243H508.887C510.551 243 510.879 242.613 510.879 240.68V237.422C510.879 235.816 512.027 234.785 514.148 234.656V234.445C512.027 234.316 510.879 233.273 510.879 231.68V228.41C510.879 226.477 510.551 226.09 508.887 226.09H507.762V223.512H509.648C513.035 223.512 514.137 224.578 514.137 227.859V230.449C514.137 232.301 514.98 233.016 517.559 232.91V236.18C514.98 236.086 514.137 236.801 514.137 238.652V241.23C514.137 244.512 513.035 245.578 509.648 245.578H507.762ZM522.598 245.578V243H523.723C525.387 243 525.715 242.613 525.715 240.68V237.422C525.715 235.816 526.863 234.785 528.984 234.656V234.445C526.863 234.316 525.715 233.273 525.715 231.68V228.41C525.715 226.477 525.387 226.09 523.723 226.09H522.598V223.512H524.484C527.871 223.512 528.973 224.578 528.973 227.859V230.449C528.973 232.301 529.816 233.016 532.395 232.91V236.18C529.816 236.086 528.973 236.801 528.973 238.652V241.23C528.973 244.512 527.871 245.578 524.484 245.578H522.598ZM536.883 231.902V228.246L547.805 234.059V236.895L536.883 242.695V239.051L544.348 235.594V235.359L536.883 231.902ZM176.906 260.902L169.43 264.359V264.594L176.906 268.051V271.695L165.984 265.895V263.059L176.906 257.246V260.902ZM186.914 272H180.539V255.09H186.762C190.008 255.09 191.965 256.66 191.965 259.297C191.965 261.125 190.676 262.66 188.918 262.93V263.129C191.168 263.293 192.773 264.992 192.773 267.184C192.773 270.148 190.535 272 186.914 272ZM183.797 257.656V262.051H185.719C187.559 262.051 188.613 261.254 188.613 259.895C188.613 258.441 187.641 257.656 185.859 257.656H183.797ZM183.797 269.387H185.883C188.203 269.387 189.305 268.602 189.305 266.891C189.305 265.285 188.145 264.488 185.859 264.488H183.797V269.387ZM201.105 272.281C197.461 272.281 195.164 270.066 195.164 266.539V264.547C195.164 261.02 197.461 258.805 201.105 258.805C204.75 258.805 207.047 261.02 207.047 264.547V266.539C207.047 270.066 204.75 272.281 201.105 272.281ZM201.105 261.43C199.383 261.43 198.316 262.672 198.316 264.676V266.41C198.316 268.402 199.383 269.656 201.105 269.656C202.828 269.656 203.895 268.402 203.895 266.41V264.676C203.895 262.672 202.828 261.43 201.105 261.43ZM215.965 267.664H215.777L213.199 272H209.801L213.902 265.602L209.766 259.074H213.469L215.918 263.434H216.117L218.578 259.074H222.094L217.969 265.461L222.117 272H218.543L215.965 267.664ZM247.043 272.199C245.156 272.199 243.879 271.344 243.422 269.773H243.188V272H239.883V254.152H243.223V261.277H243.469C243.902 259.73 245.191 258.863 247.043 258.863C250.008 258.863 251.754 260.902 251.754 264.418V266.645C251.754 270.16 250.008 272.199 247.043 272.199ZM245.812 269.422C247.477 269.422 248.484 268.332 248.484 266.551V264.418C248.484 262.637 247.477 261.559 245.812 261.559C244.16 261.559 243.141 262.637 243.141 264.418V266.551C243.141 268.332 244.16 269.422 245.812 269.422ZM258.703 272.211C256.266 272.211 254.625 270.641 254.625 268.309C254.625 265.977 256.324 264.605 259.512 264.383L262.535 264.195V263.164C262.535 262.039 261.762 261.383 260.438 261.383C259.324 261.383 258.492 261.875 258.223 262.684H255.105C255.34 260.34 257.461 258.828 260.531 258.828C263.848 258.828 265.711 260.41 265.711 263.234V272H262.664V270.277H262.383C261.75 271.496 260.391 272.211 258.703 272.211ZM259.805 269.645C261.398 269.645 262.535 268.637 262.535 267.195V266.258L260.051 266.41C258.551 266.504 257.789 267.078 257.789 268.074C257.789 269.035 258.562 269.645 259.805 269.645ZM281.133 263.586H277.992C277.781 262.133 276.914 261.43 275.52 261.43C273.797 261.43 272.848 262.719 272.848 265.086V265.953C272.848 268.32 273.797 269.609 275.52 269.609C276.926 269.609 277.77 268.941 277.992 267.559H281.133C280.852 270.641 278.883 272.281 275.543 272.281C271.734 272.281 269.625 270.125 269.625 266.199V264.84C269.625 260.914 271.734 258.758 275.543 258.758C278.883 258.758 280.828 260.422 281.133 263.586ZM288.457 264.266L292.957 259.074H296.625L291.844 264.453L296.953 272H293.238L289.488 266.48L288.258 267.711V272H285.059V254.152H288.258V264.266H288.457ZM304.594 276.863C301.242 276.863 299.051 275.445 298.84 273.148H301.969C302.191 273.98 303.223 274.508 304.641 274.508C306.504 274.508 307.488 273.664 307.488 272.047V269.504H307.242C306.844 270.957 305.344 271.93 303.422 271.93C300.445 271.93 298.664 269.867 298.664 266.375V264.418C298.664 260.891 300.48 258.863 303.574 258.863C305.449 258.863 306.891 259.812 307.312 261.277H307.547V259.074H310.699V271.988C310.699 275 308.367 276.863 304.594 276.863ZM301.945 266.281C301.945 268.039 303.012 269.141 304.688 269.141C306.375 269.141 307.441 268.039 307.441 266.281V264.418C307.441 262.66 306.375 261.559 304.688 261.559C303.012 261.559 301.945 262.672 301.945 264.418V266.281ZM319.547 266.27V269.645H323.297V272H314.016V269.645H316.477V261.441H313.781V259.074H319.57V262.391H320.074C320.637 259.824 321.961 258.734 324.398 258.734C325.125 258.734 325.781 258.828 326.238 259.004V262.484C325.652 262.262 324.809 262.109 324.082 262.109C321.035 262.109 319.547 263.492 319.547 266.27ZM334.629 272.281C330.984 272.281 328.688 270.066 328.688 266.539V264.547C328.688 261.02 330.984 258.805 334.629 258.805C338.273 258.805 340.57 261.02 340.57 264.547V266.539C340.57 270.066 338.273 272.281 334.629 272.281ZM334.629 261.43C332.906 261.43 331.84 262.672 331.84 264.676V266.41C331.84 268.402 332.906 269.656 334.629 269.656C336.352 269.656 337.418 268.402 337.418 266.41V264.676C337.418 262.672 336.352 261.43 334.629 261.43ZM355.219 259.074V272H352.113V269.832H351.914C351.281 271.391 349.887 272.281 348.023 272.281C345.211 272.281 343.711 270.594 343.711 267.441V259.074H346.922V266.668C346.922 268.566 347.684 269.469 349.312 269.469C350.953 269.469 352.02 268.332 352.02 266.551V259.074H355.219ZM358.547 272V259.074H361.652V261.242H361.852C362.484 259.684 363.879 258.805 365.742 258.805C368.555 258.805 370.055 260.492 370.055 263.645V272H366.844V264.406C366.844 262.508 366.082 261.605 364.453 261.605C362.812 261.605 361.746 262.742 361.746 264.535V272H358.547ZM377.707 272.199C374.754 272.199 372.996 270.16 372.996 266.645V264.418C372.996 260.902 374.754 258.863 377.707 258.863C379.57 258.863 380.859 259.73 381.293 261.277H381.527V254.152H384.879V272H381.574V269.773H381.328C380.883 271.344 379.605 272.199 377.707 272.199ZM378.949 269.422C380.602 269.422 381.609 268.332 381.609 266.551V264.418C381.609 262.637 380.602 261.559 378.949 261.559C377.285 261.559 376.266 262.637 376.266 264.418V266.551C376.266 268.332 377.285 269.422 378.949 269.422ZM394.348 269.352C396.094 269.352 397.184 268.133 397.219 266.164H400.594C400.594 269.996 398.203 272.34 394.359 272.34C390.176 272.34 387.715 269.727 387.715 265.273V261.816C387.715 257.363 390.176 254.75 394.359 254.75C398.25 254.75 400.559 257.082 400.582 261.078H397.207C397.172 259.051 396.023 257.738 394.301 257.738C392.25 257.738 391.172 259.145 391.172 261.816V265.273C391.172 267.957 392.25 269.352 394.348 269.352ZM408.809 272.281C405.164 272.281 402.867 270.066 402.867 266.539V264.547C402.867 261.02 405.164 258.805 408.809 258.805C412.453 258.805 414.75 261.02 414.75 264.547V266.539C414.75 270.066 412.453 272.281 408.809 272.281ZM408.809 261.43C407.086 261.43 406.02 262.672 406.02 264.676V266.41C406.02 268.402 407.086 269.656 408.809 269.656C410.531 269.656 411.598 268.402 411.598 266.41V264.676C411.598 262.672 410.531 261.43 408.809 261.43ZM429.352 272H418.184V269.445H422.285V256.707H418.395V254.152H425.496V269.445H429.352V272ZM438.48 272.281C434.836 272.281 432.539 270.066 432.539 266.539V264.547C432.539 261.02 434.836 258.805 438.48 258.805C442.125 258.805 444.422 261.02 444.422 264.547V266.539C444.422 270.066 442.125 272.281 438.48 272.281ZM438.48 261.43C436.758 261.43 435.691 262.672 435.691 264.676V266.41C435.691 268.402 436.758 269.656 438.48 269.656C440.203 269.656 441.27 268.402 441.27 266.41V264.676C441.27 262.672 440.203 261.43 438.48 261.43ZM453.07 266.27V269.645H456.82V272H447.539V269.645H450V261.441H447.305V259.074H453.094V262.391H453.598C454.16 259.824 455.484 258.734 457.922 258.734C458.648 258.734 459.305 258.828 459.762 259.004V262.484C459.176 262.262 458.332 262.109 457.605 262.109C454.559 262.109 453.07 263.492 453.07 266.27ZM474.363 263.105H461.941V259.895H474.363V263.105ZM474.363 269.082H461.941V265.871H474.363V269.082ZM481.793 263.164H478.629V255.09H481.793V263.164ZM487.348 263.164H484.184V255.09H487.348V263.164ZM497.461 276.863C494.109 276.863 491.918 275.445 491.707 273.148H494.836C495.059 273.98 496.09 274.508 497.508 274.508C499.371 274.508 500.355 273.664 500.355 272.047V269.504H500.109C499.711 270.957 498.211 271.93 496.289 271.93C493.312 271.93 491.531 269.867 491.531 266.375V264.418C491.531 260.891 493.348 258.863 496.441 258.863C498.316 258.863 499.758 259.812 500.18 261.277H500.414V259.074H503.566V271.988C503.566 275 501.234 276.863 497.461 276.863ZM494.812 266.281C494.812 268.039 495.879 269.141 497.555 269.141C499.242 269.141 500.309 268.039 500.309 266.281V264.418C500.309 262.66 499.242 261.559 497.555 261.559C495.879 261.559 494.812 262.672 494.812 264.418V266.281ZM512.414 266.27V269.645H516.164V272H506.883V269.645H509.344V261.441H506.648V259.074H512.438V262.391H512.941C513.504 259.824 514.828 258.734 517.266 258.734C517.992 258.734 518.648 258.828 519.105 259.004V262.484C518.52 262.262 517.676 262.109 516.949 262.109C513.902 262.109 512.414 263.492 512.414 266.27ZM525.75 272.211C523.312 272.211 521.672 270.641 521.672 268.309C521.672 265.977 523.371 264.605 526.559 264.383L529.582 264.195V263.164C529.582 262.039 528.809 261.383 527.484 261.383C526.371 261.383 525.539 261.875 525.27 262.684H522.152C522.387 260.34 524.508 258.828 527.578 258.828C530.895 258.828 532.758 260.41 532.758 263.234V272H529.711V270.277H529.43C528.797 271.496 527.438 272.211 525.75 272.211ZM526.852 269.645C528.445 269.645 529.582 268.637 529.582 267.195V266.258L527.098 266.41C525.598 266.504 524.836 267.078 524.836 268.074C524.836 269.035 525.609 269.645 526.852 269.645ZM538.512 276.664C537.961 276.664 537.375 276.652 537.281 276.641V274.016C537.363 274.039 537.82 274.051 537.996 274.051C539.297 274.051 540.012 273.605 540.316 272.586L540.445 272.094L535.898 259.074H539.438L542.297 269.047H542.496L545.355 259.074H548.754L544.301 272.164C543.188 275.492 541.676 276.664 538.512 276.664ZM555.973 263.164H552.809V255.09H555.973V263.164ZM561.527 263.164H558.363V255.09H561.527V263.164ZM588.281 258.875C591.246 258.875 592.992 260.914 592.992 264.43V266.656C592.992 270.184 591.246 272.223 588.281 272.223C586.418 272.223 585.129 271.355 584.695 269.809H584.461V276.301H581.121V259.074H584.414V261.301H584.66C585.117 259.742 586.395 258.875 588.281 258.875ZM587.051 261.664C585.387 261.664 584.379 262.742 584.379 264.523V266.668C584.379 268.449 585.387 269.527 587.051 269.527C588.703 269.527 589.723 268.438 589.723 266.668V264.523C589.723 262.754 588.703 261.664 587.051 261.664ZM607.887 263.105H595.465V259.895H607.887V263.105ZM607.887 269.082H595.465V265.871H607.887V269.082ZM615.316 263.164H612.152V255.09H615.316V263.164ZM620.871 263.164H617.707V255.09H620.871V263.164ZM637.055 272H625.887V269.445H629.988V256.707H626.098V254.152H633.199V269.445H637.055V272ZM645.82 276.863C642.469 276.863 640.277 275.445 640.066 273.148H643.195C643.418 273.98 644.449 274.508 645.867 274.508C647.73 274.508 648.715 273.664 648.715 272.047V269.504H648.469C648.07 270.957 646.57 271.93 644.648 271.93C641.672 271.93 639.891 269.867 639.891 266.375V264.418C639.891 260.891 641.707 258.863 644.801 258.863C646.676 258.863 648.117 259.812 648.539 261.277H648.773V259.074H651.926V271.988C651.926 275 649.594 276.863 645.82 276.863ZM643.172 266.281C643.172 268.039 644.238 269.141 645.914 269.141C647.602 269.141 648.668 268.039 648.668 266.281V264.418C648.668 262.66 647.602 261.559 645.914 261.559C644.238 261.559 643.172 262.672 643.172 264.418V266.281ZM659.824 263.164H656.66V255.09H659.824V263.164ZM665.379 263.164H662.215V255.09H665.379V263.164ZM690.445 266.27V269.645H694.195V272H684.914V269.645H687.375V261.441H684.68V259.074H690.469V262.391H690.973C691.535 259.824 692.859 258.734 695.297 258.734C696.023 258.734 696.68 258.828 697.137 259.004V262.484C696.551 262.262 695.707 262.109 694.98 262.109C691.934 262.109 690.445 263.492 690.445 266.27ZM703.781 272.211C701.344 272.211 699.703 270.641 699.703 268.309C699.703 265.977 701.402 264.605 704.59 264.383L707.613 264.195V263.164C707.613 262.039 706.84 261.383 705.516 261.383C704.402 261.383 703.57 261.875 703.301 262.684H700.184C700.418 260.34 702.539 258.828 705.609 258.828C708.926 258.828 710.789 260.41 710.789 263.234V272H707.742V270.277H707.461C706.828 271.496 705.469 272.211 703.781 272.211ZM704.883 269.645C706.477 269.645 707.613 268.637 707.613 267.195V266.258L705.129 266.41C703.629 266.504 702.867 267.078 702.867 268.074C702.867 269.035 703.641 269.645 704.883 269.645ZM718.934 272.199C715.98 272.199 714.223 270.16 714.223 266.645V264.418C714.223 260.902 715.98 258.863 718.934 258.863C720.797 258.863 722.086 259.73 722.52 261.277H722.754V254.152H726.105V272H722.801V269.773H722.555C722.109 271.344 720.832 272.199 718.934 272.199ZM720.176 269.422C721.828 269.422 722.836 268.332 722.836 266.551V264.418C722.836 262.637 721.828 261.559 720.176 261.559C718.512 261.559 717.492 262.637 717.492 264.418V266.551C717.492 268.332 718.512 269.422 720.176 269.422ZM735.387 256.438C734.074 256.438 733.195 255.629 733.195 254.41C733.195 253.191 734.074 252.383 735.387 252.383C736.699 252.383 737.59 253.191 737.59 254.41C737.59 255.629 736.699 256.438 735.387 256.438ZM740.906 272H729.738V269.445H733.887V261.641H729.949V259.074H737.004V269.445H740.906V272ZM755.789 259.074V272H752.684V269.832H752.484C751.852 271.391 750.457 272.281 748.594 272.281C745.781 272.281 744.281 270.594 744.281 267.441V259.074H747.492V266.668C747.492 268.566 748.254 269.469 749.883 269.469C751.523 269.469 752.59 268.332 752.59 266.551V259.074H755.789ZM759.645 262.848C759.645 260.34 761.66 258.77 764.859 258.77C767.988 258.77 769.898 260.176 770.051 262.602H767.027C766.875 261.746 766.031 261.219 764.836 261.219C763.617 261.219 762.809 261.77 762.809 262.59C762.809 263.293 763.348 263.715 764.602 263.973L766.605 264.383C769.219 264.922 770.379 266.035 770.379 268.004C770.379 270.617 768.246 272.27 764.883 272.27C761.578 272.27 759.539 270.852 759.363 268.426H762.527C762.727 269.316 763.594 269.809 764.93 269.809C766.242 269.809 767.086 269.258 767.086 268.414C767.086 267.688 766.594 267.336 765.234 267.043L763.301 266.633C760.875 266.105 759.645 264.84 759.645 262.848ZM785.918 263.105H773.496V259.895H785.918V263.105ZM785.918 269.082H773.496V265.871H785.918V269.082ZM793.348 263.164H790.184V255.09H793.348V263.164ZM798.902 263.164H795.738V255.09H798.902V263.164ZM815.906 261.969V272H813.188V263.047C813.188 262.121 812.73 261.57 811.992 261.57C811.23 261.57 810.727 262.18 810.727 263.129V272H808.043V263.047C808.043 262.121 807.609 261.57 806.848 261.57C806.074 261.57 805.57 262.18 805.57 263.129V272H802.852V259.074H805.652V261.102H805.992C806.285 259.613 807.164 258.805 808.441 258.805C809.613 258.805 810.434 259.602 810.703 260.996H811.043C811.312 259.613 812.215 258.805 813.445 258.805C815.039 258.805 815.906 259.918 815.906 261.969ZM822.785 272.199C819.832 272.199 818.074 270.16 818.074 266.645V264.418C818.074 260.902 819.832 258.863 822.785 258.863C824.648 258.863 825.938 259.73 826.371 261.277H826.605V254.152H829.957V272H826.652V269.773H826.406C825.961 271.344 824.684 272.199 822.785 272.199ZM824.027 269.422C825.68 269.422 826.688 268.332 826.688 266.551V264.418C826.688 262.637 825.68 261.559 824.027 261.559C822.363 261.559 821.344 262.637 821.344 264.418V266.551C821.344 268.332 822.363 269.422 824.027 269.422ZM837.855 263.164H834.691V255.09H837.855V263.164ZM843.41 263.164H840.246V255.09H843.41V263.164ZM848.438 260.902V257.246L859.359 263.059V265.895L848.438 271.695V268.051L855.902 264.594V264.359L848.438 260.902ZM206.578 289.902L199.102 293.359V293.594L206.578 297.051V300.695L195.656 294.895V292.059L206.578 286.246V289.902ZM210.27 284.09H216.457C220.008 284.09 222.258 286.328 222.258 289.879C222.258 293.395 219.938 295.633 216.293 295.633H213.598V301H210.27V284.09ZM213.598 286.82V292.891H215.613C217.793 292.891 218.883 291.895 218.883 289.855C218.883 287.828 217.793 286.82 215.613 286.82H213.598ZM230.531 295.27V298.645H234.281V301H225V298.645H227.461V290.441H224.766V288.074H230.555V291.391H231.059C231.621 288.824 232.945 287.734 235.383 287.734C236.109 287.734 236.766 287.828 237.223 288.004V291.484C236.637 291.262 235.793 291.109 235.066 291.109C232.02 291.109 230.531 292.492 230.531 295.27ZM248.414 297.367H251.438C251.168 299.652 248.883 301.281 245.883 301.281C242.121 301.281 239.965 299.172 239.965 295.504V293.43C239.965 290.043 242.309 287.805 245.824 287.805C249.246 287.805 251.438 290.055 251.438 293.523V295.305H243.105V296.008C243.105 297.695 244.195 298.797 245.871 298.797C247.16 298.797 248.18 298.211 248.414 297.367ZM245.766 290.289C244.102 290.289 243.105 291.402 243.105 293.254H248.344C248.344 291.402 247.383 290.289 245.766 290.289ZM255 289.902V286.246L265.922 292.059V294.895L255 300.695V297.051L262.465 293.594V293.359L255 289.902ZM280.184 303.578H278.297C274.91 303.578 273.809 302.512 273.809 299.23V296.652C273.809 294.801 272.965 294.086 270.387 294.18V290.91C272.965 291.016 273.809 290.301 273.809 288.449V285.859C273.809 282.578 274.91 281.512 278.297 281.512H280.184V284.09H279.059C277.395 284.09 277.066 284.477 277.066 286.41V289.68C277.066 291.273 275.918 292.316 273.797 292.445V292.656C275.918 292.785 277.066 293.816 277.066 295.422V298.68C277.066 300.613 277.395 301 279.059 301H280.184V303.578ZM295.969 292.586H292.828C292.617 291.133 291.75 290.43 290.355 290.43C288.633 290.43 287.684 291.719 287.684 294.086V294.953C287.684 297.32 288.633 298.609 290.355 298.609C291.762 298.609 292.605 297.941 292.828 296.559H295.969C295.688 299.641 293.719 301.281 290.379 301.281C286.57 301.281 284.461 299.125 284.461 295.199V293.84C284.461 289.914 286.57 287.758 290.379 287.758C293.719 287.758 295.664 289.422 295.969 292.586ZM304.957 301.281C301.312 301.281 299.016 299.066 299.016 295.539V293.547C299.016 290.02 301.312 287.805 304.957 287.805C308.602 287.805 310.898 290.02 310.898 293.547V295.539C310.898 299.066 308.602 301.281 304.957 301.281ZM304.957 290.43C303.234 290.43 302.168 291.672 302.168 293.676V295.41C302.168 297.402 303.234 298.656 304.957 298.656C306.68 298.656 307.746 297.402 307.746 295.41V293.676C307.746 291.672 306.68 290.43 304.957 290.43ZM314.039 301V288.074H317.145V290.242H317.344C317.977 288.684 319.371 287.805 321.234 287.805C324.047 287.805 325.547 289.492 325.547 292.645V301H322.336V293.406C322.336 291.508 321.574 290.605 319.945 290.605C318.305 290.605 317.238 291.742 317.238 293.535V301H314.039ZM331.957 284.383H335.098V288.203H339.914V290.77H335.156V296.945C335.156 297.918 335.848 298.469 337.078 298.469C337.383 298.469 339.621 298.457 339.762 298.445V300.977C339.633 301 337.078 301.023 336.82 301.023C333.305 301.023 331.957 299.91 331.957 296.91V290.77H328.594V288.203H331.957V284.383ZM352.266 297.367H355.289C355.02 299.652 352.734 301.281 349.734 301.281C345.973 301.281 343.816 299.172 343.816 295.504V293.43C343.816 290.043 346.16 287.805 349.676 287.805C353.098 287.805 355.289 290.055 355.289 293.523V295.305H346.957V296.008C346.957 297.695 348.047 298.797 349.723 298.797C351.012 298.797 352.031 298.211 352.266 297.367ZM349.617 290.289C347.953 290.289 346.957 291.402 346.957 293.254H352.195C352.195 291.402 351.234 290.289 349.617 290.289ZM358.547 301V288.074H361.652V290.242H361.852C362.484 288.684 363.879 287.805 365.742 287.805C368.555 287.805 370.055 289.492 370.055 292.645V301H366.844V293.406C366.844 291.508 366.082 290.605 364.453 290.605C362.812 290.605 361.746 291.742 361.746 293.535V301H358.547ZM376.465 284.383H379.605V288.203H384.422V290.77H379.664V296.945C379.664 297.918 380.355 298.469 381.586 298.469C381.891 298.469 384.129 298.457 384.27 298.445V300.977C384.141 301 381.586 301.023 381.328 301.023C377.812 301.023 376.465 299.91 376.465 296.91V290.77H373.102V288.203H376.465V284.383ZM389.074 303.578V301H390.199C391.863 301 392.191 300.613 392.191 298.68V295.422C392.191 293.816 393.34 292.785 395.461 292.656V292.445C393.34 292.316 392.191 291.273 392.191 289.68V286.41C392.191 284.477 391.863 284.09 390.199 284.09H389.074V281.512H390.961C394.348 281.512 395.449 282.578 395.449 285.859V288.449C395.449 290.301 396.293 291.016 398.871 290.91V294.18C396.293 294.086 395.449 294.801 395.449 296.652V299.23C395.449 302.512 394.348 303.578 390.961 303.578H389.074ZM414.281 289.902L406.805 293.359V293.594L414.281 297.051V300.695L403.359 294.895V292.059L414.281 286.246V289.902ZM421.23 303.578H418.02L425.977 281.512H429.27L421.23 303.578ZM432.809 284.09H438.996C442.547 284.09 444.797 286.328 444.797 289.879C444.797 293.395 442.477 295.633 438.832 295.633H436.137V301H432.809V284.09ZM436.137 286.82V292.891H438.152C440.332 292.891 441.422 291.895 441.422 289.855C441.422 287.828 440.332 286.82 438.152 286.82H436.137ZM453.07 295.27V298.645H456.82V301H447.539V298.645H450V290.441H447.305V288.074H453.094V291.391H453.598C454.16 288.824 455.484 287.734 457.922 287.734C458.648 287.734 459.305 287.828 459.762 288.004V291.484C459.176 291.262 458.332 291.109 457.605 291.109C454.559 291.109 453.07 292.492 453.07 295.27ZM470.953 297.367H473.977C473.707 299.652 471.422 301.281 468.422 301.281C464.66 301.281 462.504 299.172 462.504 295.504V293.43C462.504 290.043 464.848 287.805 468.363 287.805C471.785 287.805 473.977 290.055 473.977 293.523V295.305H465.645V296.008C465.645 297.695 466.734 298.797 468.41 298.797C469.699 298.797 470.719 298.211 470.953 297.367ZM468.305 290.289C466.641 290.289 465.645 291.402 465.645 293.254H470.883C470.883 291.402 469.922 290.289 468.305 290.289ZM477.539 289.902V286.246L488.461 292.059V294.895L477.539 300.695V297.051L485.004 293.594V293.359L477.539 289.902ZM176.906 318.902L169.43 322.359V322.594L176.906 326.051V329.695L165.984 323.895V321.059L176.906 315.246V318.902ZM183.855 332.578H180.645L188.602 310.512H191.895L183.855 332.578ZM201.75 330H195.375V313.09H201.598C204.844 313.09 206.801 314.66 206.801 317.297C206.801 319.125 205.512 320.66 203.754 320.93V321.129C206.004 321.293 207.609 322.992 207.609 325.184C207.609 328.148 205.371 330 201.75 330ZM198.633 315.656V320.051H200.555C202.395 320.051 203.449 319.254 203.449 317.895C203.449 316.441 202.477 315.656 200.695 315.656H198.633ZM198.633 327.387H200.719C203.039 327.387 204.141 326.602 204.141 324.891C204.141 323.285 202.98 322.488 200.695 322.488H198.633V327.387ZM215.941 330.281C212.297 330.281 210 328.066 210 324.539V322.547C210 319.02 212.297 316.805 215.941 316.805C219.586 316.805 221.883 319.02 221.883 322.547V324.539C221.883 328.066 219.586 330.281 215.941 330.281ZM215.941 319.43C214.219 319.43 213.152 320.672 213.152 322.676V324.41C213.152 326.402 214.219 327.656 215.941 327.656C217.664 327.656 218.73 326.402 218.73 324.41V322.676C218.73 320.672 217.664 319.43 215.941 319.43ZM230.801 325.664H230.613L228.035 330H224.637L228.738 323.602L224.602 317.074H228.305L230.754 321.434H230.953L233.414 317.074H236.93L232.805 323.461L236.953 330H233.379L230.801 325.664ZM240.164 318.902V315.246L251.086 321.059V323.895L240.164 329.695V326.051L247.629 322.594V322.359L240.164 318.902ZM147.234 347.902L139.758 351.359V351.594L147.234 355.051V358.695L136.312 352.895V350.059L147.234 344.246V347.902ZM154.184 361.578H150.973L158.93 339.512H162.223L154.184 361.578ZM170.004 359.199C167.051 359.199 165.293 357.16 165.293 353.645V351.418C165.293 347.902 167.051 345.863 170.004 345.863C171.867 345.863 173.156 346.73 173.59 348.277H173.824V341.152H177.176V359H173.871V356.773H173.625C173.18 358.344 171.902 359.199 170.004 359.199ZM171.246 356.422C172.898 356.422 173.906 355.332 173.906 353.551V351.418C173.906 349.637 172.898 348.559 171.246 348.559C169.582 348.559 168.562 349.637 168.562 351.418V353.551C168.562 355.332 169.582 356.422 171.246 356.422ZM186.457 343.438C185.145 343.438 184.266 342.629 184.266 341.41C184.266 340.191 185.145 339.383 186.457 339.383C187.77 339.383 188.66 340.191 188.66 341.41C188.66 342.629 187.77 343.438 186.457 343.438ZM191.977 359H180.809V356.445H184.957V348.641H181.02V346.074H188.074V356.445H191.977V359ZM194.789 346.074H198.234L201.059 355.871H201.246L204.035 346.074H207.422L202.945 359H199.289L194.789 346.074ZM210.492 347.902V344.246L221.414 350.059V352.895L210.492 358.695V355.051L217.957 351.594V351.359L210.492 347.902ZM117.562 376.902L110.086 380.359V380.594L117.562 384.051V387.695L106.641 381.895V379.059L117.562 373.246V376.902ZM124.512 390.578H121.301L129.258 368.512H132.551L124.512 390.578ZM135.457 383.266H138.598C138.75 384.73 139.945 385.574 141.867 385.574C143.695 385.574 144.855 384.695 144.855 383.324C144.855 382.176 144.105 381.566 142.148 381.133L140.391 380.723C137.332 380.031 135.832 378.414 135.832 375.906C135.832 372.754 138.164 370.75 141.82 370.75C145.359 370.75 147.738 372.73 147.844 375.754H144.703C144.574 374.359 143.508 373.504 141.855 373.504C140.18 373.504 139.137 374.289 139.137 375.555C139.137 376.75 139.887 377.406 141.715 377.805L143.449 378.203C146.719 378.93 148.148 380.395 148.148 382.984C148.148 386.324 145.758 388.34 141.809 388.34C137.977 388.34 135.574 386.43 135.457 383.266ZM153.926 371.383H157.066V375.203H161.883V377.77H157.125V383.945C157.125 384.918 157.816 385.469 159.047 385.469C159.352 385.469 161.59 385.457 161.73 385.445V387.977C161.602 388 159.047 388.023 158.789 388.023C155.273 388.023 153.926 386.91 153.926 383.91V377.77H150.562V375.203H153.926V371.383ZM169.688 388.211C167.25 388.211 165.609 386.641 165.609 384.309C165.609 381.977 167.309 380.605 170.496 380.383L173.52 380.195V379.164C173.52 378.039 172.746 377.383 171.422 377.383C170.309 377.383 169.477 377.875 169.207 378.684H166.09C166.324 376.34 168.445 374.828 171.516 374.828C174.832 374.828 176.695 376.41 176.695 379.234V388H173.648V386.277H173.367C172.734 387.496 171.375 388.211 169.688 388.211ZM170.789 385.645C172.383 385.645 173.52 384.637 173.52 383.195V382.258L171.035 382.41C169.535 382.504 168.773 383.078 168.773 384.074C168.773 385.035 169.547 385.645 170.789 385.645ZM192.117 379.586H188.977C188.766 378.133 187.898 377.43 186.504 377.43C184.781 377.43 183.832 378.719 183.832 381.086V381.953C183.832 384.32 184.781 385.609 186.504 385.609C187.91 385.609 188.754 384.941 188.977 383.559H192.117C191.836 386.641 189.867 388.281 186.527 388.281C182.719 388.281 180.609 386.125 180.609 382.199V380.84C180.609 376.914 182.719 374.758 186.527 374.758C189.867 374.758 191.812 376.422 192.117 379.586ZM199.441 380.266L203.941 375.074H207.609L202.828 380.453L207.938 388H204.223L200.473 382.48L199.242 383.711V388H196.043V370.152H199.242V380.266H199.441ZM210.492 376.902V373.246L221.414 379.059V381.895L210.492 387.695V384.051L217.957 380.594V380.359L210.492 376.902Z" fill="#16191F" fill-opacity="0.64"/>
</g>
<defs>
<clipPath id="clip0_37_20">
<rect width="560" height="315" fill="white"/>
</clipPath>
</defs>
</svg>
